<?xml version="1.0" encoding="utf-8"?>
<!DOCTYPE svg PUBLIC "-//W3C//DTD SVG 1.0//EN" "http://www.w3.org/TR/2001/REC-SVG-20010904/DTD/svg10.dtd">
<svg version="1.0" xmlns="http://www.w3.org/2000/svg" width="180px" height="180px" viewBox="0 0 180 180" preserveAspectRatio="xMidYMid meet">
 <g fill="#007fff">
  <path d="M103.5 149.8 c-3.8 -2.2 -12.6 -7.3 -19.5 -11.2 l-12.5 -7.1 -0.3 -12 -0.3 -12.1 5.3 -2.7 c2.9 -1.5 9.8 -5.4 15.3 -8.5 l10 -5.8 0.3 -10.9 c0.5 -18.7 -0.3 -19.2 -15 -10.7 -5.7 3.2 -11.7 6.6 -13.5 7.6 l-3.2 1.6 -13.3 -7.5 c-7.3 -4.1 -13.8 -7.5 -14.4 -7.5 -0.7 0 -2 0.7 -2.8 1.6 -1.4 1.3 -1.6 4.8 -1.6 22.3 0 17.7 -0.2 21.1 -1.6 22.2 -1.3 1 -2 1 -4.4 -0.4 -1.6 -1 -5.2 -3 -8 -4.5 -2.9 -1.5 -5.3 -3.5 -5.5 -4.7 -0.2 -1.1 -0.1 -17.3 0.3 -36 0.7 -31.7 0.8 -34 2.5 -34.3 1 -0.2 8.7 3.6 17 8.4 27.4 15.7 30.5 17.4 32 17.4 0.8 0 7 -3.2 13.8 -7.2 6.8 -3.9 16.5 -9.4 21.4 -12.1 5 -2.7 9.5 -5.3 10.2 -5.9 0.7 -0.5 2.2 -0.8 3.5 -0.6 l2.3 0.3 0.3 35.7 0.2 35.7 -7.7 4.5 c-17.4 10 -19.3 11.4 -19.3 13.9 0 2.9 1.6 4.3 10.3 9.1 6.3 3.5 6.9 3.6 9.5 2.3 3.7 -2 17.6 -9.8 23.7 -13.4 l5 -2.9 0.5 -14.4 0.5 -14.3 7.3 -4.4 c12.5 -7.3 12.3 -7.6 12 21.3 l-0.3 22.9 -6.5 3.6 c-3.6 2 -14.9 8.4 -25.1 14.2 -10.3 5.9 -19.3 10.7 -20 10.6 -0.8 0 -4.5 -1.8 -8.4 -4.1z"/>
  <path d="M146.2 56.8 c-0.8 -0.8 -1.2 -4.5 -1.2 -10 l0 -8.8 6.1 -4 c11.5 -7.4 12.9 -6.7 12.9 6.1 l0 8.8 -7.3 4.5 c-8 5 -8.7 5.2 -10.5 3.4z"/>
 </g>
</svg>