<svg id="visual" viewBox="0 0 900 600" width="900" height="600" xmlns="http://www.w3.org/2000/svg" xmlns:xlink="http://www.w3.org/1999/xlink" version="1.1"><path d="M0 109L82 79L164 85L245 79L327 85L409 115L491 85L573 91L655 103L736 73L818 127L900 121L900 0L818 0L736 0L655 0L573 0L491 0L409 0L327 0L245 0L164 0L82 0L0 0Z" fill="#00cc8e"></path><path d="M0 205L82 121L164 127L245 163L327 175L409 163L491 121L573 187L655 205L736 121L818 175L900 187L900 119L818 125L736 71L655 101L573 89L491 83L409 113L327 83L245 77L164 83L82 77L0 107Z" fill="#00b98a"></path><path d="M0 439L82 253L164 301L245 397L327 355L409 259L491 217L573 301L655 313L736 235L818 331L900 385L900 185L818 173L736 119L655 203L573 185L491 119L409 161L327 173L245 161L164 125L82 119L0 203Z" fill="#00a784"></path><path d="M0 547L82 535L164 499L245 523L327 529L409 511L491 439L573 493L655 523L736 541L818 457L900 547L900 383L818 329L736 233L655 311L573 299L491 215L409 257L327 353L245 395L164 299L82 251L0 437Z" fill="#00957c"></path><path d="M0 601L82 601L164 601L245 601L327 601L409 601L491 601L573 601L655 601L736 601L818 601L900 601L900 545L818 455L736 539L655 521L573 491L491 437L409 509L327 527L245 521L164 497L82 533L0 545Z" fill="#038373"></path></svg>